<svg xmlns="http://www.w3.org/2000/svg" viewBox="0 0 320 320" width="320" height="320">
  <rect width="320" height="320" fill="#1C2E22"/>
  <ellipse cx="160" cy="150" rx="130" ry="118" fill="#5A8144"/>
  <ellipse cx="160" cy="150" rx="130" ry="118" fill="url(#g10)"/>
  <defs><radialGradient id="g10"><stop offset="55%" stop-color="#000" stop-opacity="0"/><stop offset="100%" stop-color="#000" stop-opacity="0.28"/></radialGradient></defs>
  <line x1="160" y1="150" x2="217.5" y2="63.4" stroke="#2F4A26" stroke-width="2" opacity="0.4"/><line x1="160" y1="150" x2="253.0" y2="91.2" stroke="#2F4A26" stroke-width="2" opacity="0.4"/><line x1="160" y1="150" x2="272.5" y2="129.2" stroke="#2F4A26" stroke-width="2" opacity="0.4"/><line x1="160" y1="150" x2="272.5" y2="170.8" stroke="#2F4A26" stroke-width="2" opacity="0.4"/><line x1="160" y1="150" x2="253.0" y2="208.8" stroke="#2F4A26" stroke-width="2" opacity="0.4"/><line x1="160" y1="150" x2="217.5" y2="236.6" stroke="#2F4A26" stroke-width="2" opacity="0.4"/>
  
  <circle cx="86.4" cy="106.6" r="7.4" fill="#D9862B" opacity="0.85"/><circle cx="86.4" cy="106.6" r="3.3" fill="#A8551A" opacity="0.9"/>
  <circle cx="209.1" cy="207.7" r="8.6" fill="#D9862B" opacity="0.85"/><circle cx="209.1" cy="207.7" r="3.9" fill="#A8551A" opacity="0.9"/>
  <circle cx="91.4" cy="152.8" r="7.5" fill="#D9862B" opacity="0.85"/><circle cx="91.4" cy="152.8" r="3.4" fill="#A8551A" opacity="0.9"/>
  <circle cx="120.0" cy="228.6" r="12.7" fill="#D9862B" opacity="0.85"/><circle cx="120.0" cy="228.6" r="5.7" fill="#A8551A" opacity="0.9"/>
  <circle cx="182.3" cy="226.7" r="10.9" fill="#D9862B" opacity="0.85"/><circle cx="182.3" cy="226.7" r="4.9" fill="#A8551A" opacity="0.9"/>
  <circle cx="210.6" cy="195.2" r="10.6" fill="#D9862B" opacity="0.85"/><circle cx="210.6" cy="195.2" r="4.8" fill="#A8551A" opacity="0.9"/>
  <circle cx="262.5" cy="162.5" r="11.3" fill="#D9862B" opacity="0.85"/><circle cx="262.5" cy="162.5" r="5.1" fill="#A8551A" opacity="0.9"/>
  <circle cx="116.3" cy="149.5" r="5.1" fill="#D9862B" opacity="0.85"/><circle cx="116.3" cy="149.5" r="2.3" fill="#A8551A" opacity="0.9"/>
  <circle cx="249.2" cy="156.6" r="11.9" fill="#D9862B" opacity="0.85"/><circle cx="249.2" cy="156.6" r="5.3" fill="#A8551A" opacity="0.9"/>
  <circle cx="156.9" cy="145.3" r="10.1" fill="#D9862B" opacity="0.85"/><circle cx="156.9" cy="145.3" r="4.6" fill="#A8551A" opacity="0.9"/>
  <circle cx="114.2" cy="222.5" r="12.6" fill="#D9862B" opacity="0.85"/><circle cx="114.2" cy="222.5" r="5.7" fill="#A8551A" opacity="0.9"/>
  <circle cx="200.5" cy="175.5" r="9.3" fill="#D9862B" opacity="0.85"/><circle cx="200.5" cy="175.5" r="4.2" fill="#A8551A" opacity="0.9"/>
  <circle cx="192.4" cy="179.4" r="5.7" fill="#D9862B" opacity="0.85"/><circle cx="192.4" cy="179.4" r="2.6" fill="#A8551A" opacity="0.9"/>
  <rect x="0" y="288" width="320" height="32" fill="#1C2E22" opacity="0.92"/>
  <text x="12" y="309" font-family="ui-monospace, SFMono-Regular, Menlo, monospace" font-size="12" fill="#EDF0EA" letter-spacing="1.4">APPLE / CEDAR APPLE RUST</text>
  <text x="308" y="309" text-anchor="end" font-family="ui-monospace, SFMono-Regular, Menlo, monospace" font-size="10" fill="#8C5A34">PLACEHOLDER</text>
</svg>
