<svg xmlns="http://www.w3.org/2000/svg" viewBox="0 0 320 320" width="320" height="320">
  <rect width="320" height="320" fill="#1C2E22"/>
  <ellipse cx="160" cy="150" rx="130" ry="118" fill="#4C7139"/>
  <ellipse cx="160" cy="150" rx="130" ry="118" fill="url(#g8)"/>
  <defs><radialGradient id="g8"><stop offset="55%" stop-color="#000" stop-opacity="0"/><stop offset="100%" stop-color="#000" stop-opacity="0.28"/></radialGradient></defs>
  <line x1="160" y1="150" x2="217.5" y2="63.4" stroke="#2F4A26" stroke-width="2" opacity="0.4"/><line x1="160" y1="150" x2="253.0" y2="91.2" stroke="#2F4A26" stroke-width="2" opacity="0.4"/><line x1="160" y1="150" x2="272.5" y2="129.2" stroke="#2F4A26" stroke-width="2" opacity="0.4"/><line x1="160" y1="150" x2="272.5" y2="170.8" stroke="#2F4A26" stroke-width="2" opacity="0.4"/><line x1="160" y1="150" x2="253.0" y2="208.8" stroke="#2F4A26" stroke-width="2" opacity="0.4"/><line x1="160" y1="150" x2="217.5" y2="236.6" stroke="#2F4A26" stroke-width="2" opacity="0.4"/>
  
  <circle cx="245.4" cy="156.1" r="12.2" fill="#2E3A26" opacity="0.85"/><circle cx="245.4" cy="156.1" r="5.5" fill="#161C12" opacity="0.9"/>
  <circle cx="161.4" cy="169.7" r="9.2" fill="#2E3A26" opacity="0.85"/><circle cx="161.4" cy="169.7" r="4.1" fill="#161C12" opacity="0.9"/>
  <circle cx="172.2" cy="61.4" r="12.1" fill="#2E3A26" opacity="0.85"/><circle cx="172.2" cy="61.4" r="5.5" fill="#161C12" opacity="0.9"/>
  <circle cx="165.0" cy="234.0" r="9.2" fill="#2E3A26" opacity="0.85"/><circle cx="165.0" cy="234.0" r="4.2" fill="#161C12" opacity="0.9"/>
  <circle cx="185.4" cy="184.6" r="11.6" fill="#2E3A26" opacity="0.85"/><circle cx="185.4" cy="184.6" r="5.2" fill="#161C12" opacity="0.9"/>
  <circle cx="94.5" cy="172.7" r="7.5" fill="#2E3A26" opacity="0.85"/><circle cx="94.5" cy="172.7" r="3.4" fill="#161C12" opacity="0.9"/>
  <circle cx="194.4" cy="189.2" r="11.3" fill="#2E3A26" opacity="0.85"/><circle cx="194.4" cy="189.2" r="5.1" fill="#161C12" opacity="0.9"/>
  <circle cx="86.0" cy="166.2" r="5.4" fill="#2E3A26" opacity="0.85"/><circle cx="86.0" cy="166.2" r="2.4" fill="#161C12" opacity="0.9"/>
  <circle cx="72.3" cy="192.8" r="10.6" fill="#2E3A26" opacity="0.85"/><circle cx="72.3" cy="192.8" r="4.8" fill="#161C12" opacity="0.9"/>
  <circle cx="157.8" cy="85.1" r="8.3" fill="#2E3A26" opacity="0.85"/><circle cx="157.8" cy="85.1" r="3.8" fill="#161C12" opacity="0.9"/>
  <circle cx="132.9" cy="149.4" r="4.7" fill="#2E3A26" opacity="0.85"/><circle cx="132.9" cy="149.4" r="2.1" fill="#161C12" opacity="0.9"/>
  <circle cx="218.0" cy="76.3" r="12.4" fill="#2E3A26" opacity="0.85"/><circle cx="218.0" cy="76.3" r="5.6" fill="#161C12" opacity="0.9"/>
  <circle cx="105.2" cy="129.5" r="4.8" fill="#2E3A26" opacity="0.85"/><circle cx="105.2" cy="129.5" r="2.2" fill="#161C12" opacity="0.9"/>
  <circle cx="94.4" cy="97.4" r="11.9" fill="#2E3A26" opacity="0.85"/><circle cx="94.4" cy="97.4" r="5.4" fill="#161C12" opacity="0.9"/>
  <circle cx="83.6" cy="108.1" r="9.8" fill="#2E3A26" opacity="0.85"/><circle cx="83.6" cy="108.1" r="4.4" fill="#161C12" opacity="0.9"/>
  <circle cx="221.2" cy="95.8" r="8.0" fill="#2E3A26" opacity="0.85"/><circle cx="221.2" cy="95.8" r="3.6" fill="#161C12" opacity="0.9"/>
  <circle cx="114.5" cy="172.5" r="5.9" fill="#2E3A26" opacity="0.85"/><circle cx="114.5" cy="172.5" r="2.7" fill="#161C12" opacity="0.9"/>
  <circle cx="238.6" cy="178.9" r="9.3" fill="#2E3A26" opacity="0.85"/><circle cx="238.6" cy="178.9" r="4.2" fill="#161C12" opacity="0.9"/>
  <circle cx="196.8" cy="116.6" r="10.3" fill="#2E3A26" opacity="0.85"/><circle cx="196.8" cy="116.6" r="4.6" fill="#161C12" opacity="0.9"/>
  <circle cx="202.4" cy="143.8" r="7.0" fill="#2E3A26" opacity="0.85"/><circle cx="202.4" cy="143.8" r="3.1" fill="#161C12" opacity="0.9"/>
  <circle cx="245.0" cy="126.3" r="6.2" fill="#2E3A26" opacity="0.85"/><circle cx="245.0" cy="126.3" r="2.8" fill="#161C12" opacity="0.9"/>
  <circle cx="117.7" cy="215.7" r="9.8" fill="#2E3A26" opacity="0.85"/><circle cx="117.7" cy="215.7" r="4.4" fill="#161C12" opacity="0.9"/>
  <circle cx="88.2" cy="155.5" r="8.7" fill="#2E3A26" opacity="0.85"/><circle cx="88.2" cy="155.5" r="3.9" fill="#161C12" opacity="0.9"/>
  <circle cx="87.7" cy="143.0" r="12.8" fill="#2E3A26" opacity="0.85"/><circle cx="87.7" cy="143.0" r="5.8" fill="#161C12" opacity="0.9"/>
  <rect x="0" y="288" width="320" height="32" fill="#1C2E22" opacity="0.92"/>
  <text x="12" y="309" font-family="ui-monospace, SFMono-Regular, Menlo, monospace" font-size="12" fill="#EDF0EA" letter-spacing="1.4">APPLE / SCAB</text>
  <text x="308" y="309" text-anchor="end" font-family="ui-monospace, SFMono-Regular, Menlo, monospace" font-size="10" fill="#8C5A34">PLACEHOLDER</text>
</svg>
