<svg xmlns="http://www.w3.org/2000/svg" viewBox="0 0 320 320" width="320" height="320">
  <rect width="320" height="320" fill="#1C2E22"/>
  <ellipse cx="160" cy="150" rx="130" ry="118" fill="#4F6B3C"/>
  <ellipse cx="160" cy="150" rx="130" ry="118" fill="url(#g3)"/>
  <defs><radialGradient id="g3"><stop offset="55%" stop-color="#000" stop-opacity="0"/><stop offset="100%" stop-color="#000" stop-opacity="0.28"/></radialGradient></defs>
  <line x1="160" y1="150" x2="217.5" y2="63.4" stroke="#2F4A26" stroke-width="2" opacity="0.4"/><line x1="160" y1="150" x2="253.0" y2="91.2" stroke="#2F4A26" stroke-width="2" opacity="0.4"/><line x1="160" y1="150" x2="272.5" y2="129.2" stroke="#2F4A26" stroke-width="2" opacity="0.4"/><line x1="160" y1="150" x2="272.5" y2="170.8" stroke="#2F4A26" stroke-width="2" opacity="0.4"/><line x1="160" y1="150" x2="253.0" y2="208.8" stroke="#2F4A26" stroke-width="2" opacity="0.4"/><line x1="160" y1="150" x2="217.5" y2="236.6" stroke="#2F4A26" stroke-width="2" opacity="0.4"/>
  
  <circle cx="148.2" cy="146.4" r="11.6" fill="#6E5227" opacity="0.85"/><circle cx="148.2" cy="146.4" r="5.2" fill="#3A2A11" opacity="0.9"/>
  <circle cx="149.6" cy="114.1" r="5.8" fill="#6E5227" opacity="0.85"/><circle cx="149.6" cy="114.1" r="2.6" fill="#3A2A11" opacity="0.9"/>
  <circle cx="126.7" cy="197.9" r="11.6" fill="#6E5227" opacity="0.85"/><circle cx="126.7" cy="197.9" r="5.2" fill="#3A2A11" opacity="0.9"/>
  <circle cx="131.6" cy="112.8" r="8.5" fill="#6E5227" opacity="0.85"/><circle cx="131.6" cy="112.8" r="3.8" fill="#3A2A11" opacity="0.9"/>
  <circle cx="180.7" cy="224.6" r="11.3" fill="#6E5227" opacity="0.85"/><circle cx="180.7" cy="224.6" r="5.1" fill="#3A2A11" opacity="0.9"/>
  <circle cx="159.8" cy="127.3" r="5.2" fill="#6E5227" opacity="0.85"/><circle cx="159.8" cy="127.3" r="2.3" fill="#3A2A11" opacity="0.9"/>
  <circle cx="151.0" cy="216.7" r="9.1" fill="#6E5227" opacity="0.85"/><circle cx="151.0" cy="216.7" r="4.1" fill="#3A2A11" opacity="0.9"/>
  <circle cx="80.0" cy="167.9" r="11.2" fill="#6E5227" opacity="0.85"/><circle cx="80.0" cy="167.9" r="5.0" fill="#3A2A11" opacity="0.9"/>
  <circle cx="178.6" cy="204.5" r="12.4" fill="#6E5227" opacity="0.85"/><circle cx="178.6" cy="204.5" r="5.6" fill="#3A2A11" opacity="0.9"/>
  <circle cx="140.6" cy="226.1" r="6.2" fill="#6E5227" opacity="0.85"/><circle cx="140.6" cy="226.1" r="2.8" fill="#3A2A11" opacity="0.9"/>
  <circle cx="241.2" cy="127.0" r="9.3" fill="#6E5227" opacity="0.85"/><circle cx="241.2" cy="127.0" r="4.2" fill="#3A2A11" opacity="0.9"/>
  <circle cx="154.7" cy="204.3" r="12.0" fill="#6E5227" opacity="0.85"/><circle cx="154.7" cy="204.3" r="5.4" fill="#3A2A11" opacity="0.9"/>
  <circle cx="209.4" cy="201.6" r="11.3" fill="#6E5227" opacity="0.85"/><circle cx="209.4" cy="201.6" r="5.1" fill="#3A2A11" opacity="0.9"/>
  <circle cx="143.3" cy="101.4" r="4.4" fill="#6E5227" opacity="0.85"/><circle cx="143.3" cy="101.4" r="2.0" fill="#3A2A11" opacity="0.9"/>
  <circle cx="182.0" cy="212.2" r="5.9" fill="#6E5227" opacity="0.85"/><circle cx="182.0" cy="212.2" r="2.6" fill="#3A2A11" opacity="0.9"/>
  <circle cx="194.5" cy="70.3" r="12.0" fill="#6E5227" opacity="0.85"/><circle cx="194.5" cy="70.3" r="5.4" fill="#3A2A11" opacity="0.9"/>
  <circle cx="238.1" cy="98.8" r="11.4" fill="#6E5227" opacity="0.85"/><circle cx="238.1" cy="98.8" r="5.1" fill="#3A2A11" opacity="0.9"/>
  <circle cx="63.2" cy="130.9" r="7.4" fill="#6E5227" opacity="0.85"/><circle cx="63.2" cy="130.9" r="3.3" fill="#3A2A11" opacity="0.9"/>
  <circle cx="111.3" cy="220.6" r="11.3" fill="#6E5227" opacity="0.85"/><circle cx="111.3" cy="220.6" r="5.1" fill="#3A2A11" opacity="0.9"/>
  <circle cx="107.4" cy="77.6" r="11.4" fill="#6E5227" opacity="0.85"/><circle cx="107.4" cy="77.6" r="5.1" fill="#3A2A11" opacity="0.9"/>
  <circle cx="121.1" cy="226.5" r="7.8" fill="#6E5227" opacity="0.85"/><circle cx="121.1" cy="226.5" r="3.5" fill="#3A2A11" opacity="0.9"/>
  <circle cx="136.6" cy="187.2" r="12.3" fill="#6E5227" opacity="0.85"/><circle cx="136.6" cy="187.2" r="5.5" fill="#3A2A11" opacity="0.9"/>
  <rect x="0" y="288" width="320" height="32" fill="#1C2E22" opacity="0.92"/>
  <text x="12" y="309" font-family="ui-monospace, SFMono-Regular, Menlo, monospace" font-size="12" fill="#EDF0EA" letter-spacing="1.4">GRAPE / LEAF BLIGHT</text>
  <text x="308" y="309" text-anchor="end" font-family="ui-monospace, SFMono-Regular, Menlo, monospace" font-size="10" fill="#8C5A34">PLACEHOLDER</text>
</svg>
